# AST/ASF file generated using VICON BodyLanguage
# -----------------------------------------------
:version 1.10
:name VICON
:units
  mass 1.0
  length 0.45
  angle deg
:documentation
   .ast/.asf automatically generated from VICON data using
   VICON BodyBuilder and BodyLanguage model FoxedUp or BRILLIANT.MOD
:root
   order TX TY TZ RX RY RZ
   axis XYZ
   position 0 0 0  
   orientation 0 0 0 
:bonedata
  begin
     id 1 
     name lhipjoint
     direction 0.63403 -0.759788 0.143974 
     length 2.51904 
     axis 0 0 0  XYZ
  end
  begin
     id 2 
     name lfemur
     direction 0.34202 -0.939693 0  
     length 7.42313  
     axis 0 0 20  XYZ
    dof rx ry rz
    limits (-160.0 20.0)
           (-70.0 70.0)
           (-60.0 70.0)
  end
  begin
     id 3 
     name ltibia
     direction 0.34202 -0.939693 0   
     length 8.10141   
     axis 0 0 20   XYZ
    dof rx
    limits (-10.0 170.0)
  end
  begin
     id 4 
     name lfoot
     direction 0.0927455 -0.254816 0.962532   
     length 2.14078   
     axis -90 7.62852e-016 20   XYZ
    dof rx rz
    limits (-45.0 90.0)
           (-70.0 20.0)
  end
  begin
     id 5 
     name ltoes
     direction 1.53556e-011 -4.21949e-011 1   
     length 1.07182   
     axis -90 7.62852e-016 20   XYZ
    dof rx
    limits (-90.0 20.0)
  end
  begin
     id 6 
     name rhipjoint
     direction -0.659892 -0.738223 0.139888   
     length 2.59263  
     axis 0 0 0  XYZ 
  end
  begin
     id 7 
     name rfemur
     direction -0.34202 -0.939693 0   
     length 7.58575   
     axis 0 0 -20   XYZ
    dof rx ry rz
    limits (-160.0 20.0)
           (-70.0 70.0)
           (-70.0 60.0)
  end
  begin
     id 8 
     name rtibia
     direction -0.34202 -0.939693 0   
     length 8.19358   
     axis 0 0 -20   XYZ
    dof rx
    limits (-10.0 170.0)
 end
 begin
     id 9 
     name rfoot
     direction -0.0856543 -0.235333 0.968133   
     length 2.13415  
     axis -90 -7.62852e-016 -20   XYZ
    dof rx rz
    limits (-45.0 90.0)
           (-20.0 70.0)
  end
  begin
     id 10 
     name rtoes
     direction -1.53551e-011 -4.21811e-011 1   
     length 1.07055   
     axis -90 -7.62852e-016 -20   XYZ
    dof rx
    limits (-90.0 20.0)
  end
  begin
     id 11 
     name lowerback
     direction 0.025219 0.998394 -0.0507326   
     length 1.91844   
     axis 0 0 0   XYZ
    dof rx ry rz
    limits (-20.0 45.0)
           (-30.0 30.0)
           (-30.0 30.0)
  end
  begin
     id 12 
     name upperback
     direction 0.0213103 0.99967 -0.0143101   
     length 1.92246   
     axis 0 0 0   XYZ
    dof rx ry rz
    limits (-20.0 45.0)
           (-30.0 30.0)
           (-30.0 30.0)
  end
  begin
     id 13 
     name thorax
     direction 0.00920974 0.99991 0.00971518   
     length 1.92239   
     axis 0 0 0   XYZ
    dof rx ry rz
    limits (-20.0 45.0)
           (-30.0 30.0)
           (-30.0 30.0)
  end
  begin
     id 14 
     name lowerneck
     direction 0.0598257 0.997249 0.0437612   
     length 3.13679   
     axis 0 0 0   XYZ
    dof rx ry rz
    limits (-20.0 45.0)
           (-30.0 30.0)
           (-30.0 30.0)
  end
  begin
     id 15 
     name upperneck
     direction -0.035342 0.999338 0.00863891   
     length 3.16283   
     axis 0 0 0   XYZ
    dof rx ry rz
    limits (-20.0 45.0)
           (-30.0 30.0)
           (-30.0 30.0)
  end
  begin
     id 16
     name head
     direction 0.37144 0.811566 0.450991  
     length 1.2838  
     axis 0 0 0   XYZ
    dof rx ry rz
    limits (-20.0 45.0)
           (-30.0 30.0)
           (-30.0 30.0)
  end
  begin
     id 17 
     name lclavicle
     direction 0.961094 0.274654 -0.0293862  
     length 3.63466  
     axis 0 0 0   XYZ
    dof ry rz
    limits (-20.0 10.0)
           (0.0 20.0)
  end
  begin
     id 18 
     name lhumerus
     direction 1 -4.48963e-011 1.10303e-027   
     length 5.12842   
     axis 180 -30 -90   XYZ
    dof rx ry rz
    limits (-60.0 90.0)
           (-90.0 90.0)
           (-90.0 90.0)
  end
  begin
     id 19
     name lradius
     direction 1 -4.48968e-011 4.13199e-027   
     length 3.47396   
     axis 180 -30 -90   XYZ
    dof rx
    limits (-10.0 170.0)
  end
  begin
     id 20
     name lwrist
     direction 1 -4.48948e-011 9.12708e-027   
     length 1.73698   
     axis -6.84618e-015 90 90   XYZ
    dof ry
    limits (-180.0 0.0)
 end
  begin
     id 21 
     name lhand
     direction 1 -4.49057e-011 1.82749e-026   
     length 0.728607   
     axis -1.16502e-014 90 90   XYZ
    dof rx rz
    limits (-90.0 90.0)
           (-45.0 45.0)
  end
  begin
     id 22 
     name lfingers
     direction 1 -4.48912e-011 3.64949e-026   
     length 0.587422   
     axis -2.33008e-014 90 90   XYZ
    dof rx
    limits (0.0 90.0)
  end
  begin
     id 23
     name lthumb
     direction 0.707107 -6.34995e-011 0.707107   
     length 0.843424   
     axis -90 45 5.69224e-014   XYZ
    dof rx rz
    limits (-45.0 45.0)
           (-45.0 45.0)
  end
  begin
     id 24 
     name rclavicle
     direction -0.90514 0.421881 -0.0523369   
     length 3.57139  
     axis 0 0 0   XYZ 
    dof ry rz
    limits (-10.0 20.0)
           (-20.0 0.0)
  end
  begin
     id 25 
     name rhumerus
     direction -1 -4.48954e-011 -1.76662e-027  
     length 5.48477   
     axis 180 30 90   XYZ
    dof rx ry rz
    limits (-90.0 60.0)
           (-90.0 90.0)
           (-90.0 90.0)
  end
  begin
     id 26 
     name rradius
     direction -1 -4.48982e-011 1.26841e-027   
     length 3.47856   
     axis 180 30 90   XYZ
    dof rx
    limits (-10.0 170.0)
  end
  begin
     id 27 
     name rwrist
     direction -1 -4.49037e-011 9.13554e-027   
     length 1.73928   
     axis -6.84618e-015 -90 -90   XYZ
    dof ry
    limits (-180.0 0.0)
  end
  begin
     id 28
     name rhand
     direction -1 -4.48871e-011 1.82397e-026   
     length 0.709974   
     axis -1.16502e-014 -90 -90   XYZ
    dof rx rz
    limits (-90.0 90.0)
           (-45.0 45.0)
  end
  begin
     id 29
     name rfingers
     direction -1 -4.48994e-011 3.65258e-026   
     length 0.572399   
     axis -2.33008e-014 -90 -90   XYZ
    dof rx
    limits (0.0 90.0)
  end
  begin
     id 30
     name rthumb
     direction -0.707107 -6.34861e-011 0.707107   
     length 0.821855   
     axis -90 -45 -5.69224e-014   XYZ
    dof rx rz
    limits (-45.0 45.0)
           (-45.0 45.0)
  end
:hierarchy
  begin
    root lhipjoint rhipjoint lowerback
    lhipjoint lfemur
    lfemur ltibia
    ltibia lfoot
    lfoot ltoes
    rhipjoint rfemur
    rfemur rtibia
    rtibia rfoot
    rfoot rtoes
    lowerback upperback
    upperback thorax
    thorax lowerneck lclavicle rclavicle
    lowerneck upperneck
    upperneck head
    lclavicle lhumerus
    lhumerus lradius
    lradius lwrist
    lwrist lhand lthumb
    lhand lfingers
    rclavicle rhumerus
    rhumerus rradius
    rradius rwrist
    rwrist rhand rthumb
    rhand rfingers
  end

#!OML:ASF F:\VICON\USERDATA\INSTALL\Justin1\Justin1.ASF
:FULLY-SPECIFIED
:DEGREES
1222
root 0.0540411 18.2489 -3.65364 5.33907 -4.02036 -3.59962
lowerback 1.67631 -0.669644 2.55197
upperback -1.94326 -0.725934 3.51133
thorax -2.92653 -0.37802 2.21475
lowerneck -15.0772 -2.83586 -3.9771
upperneck 18.2563 -2.48671 -2.28113
head 8.18591 -1.69166 -0.390383
rclavicle 1.63749e-014 -5.32743e-014
rhumerus -34.5386 -10.362 -78.3249
rradius 30.315
rwrist -2.87617
rhand -23.7211 14.7366
rfingers 7.12502
rthumb 2.74666 -15.2255
lclavicle 1.63749e-014 -5.32743e-014
lhumerus -35.3412 6.73934 88.4836
lradius 31.4544
lwrist -18.0918
lhand -6.37583 27.1384
lfingers 7.12502
lthumb 19.471 56.1835
rfemur -16.4147 8.56413 27.1865
rtibia 32.1563
rfoot -16.2997 -14.2143
rtoes 24.805
lfemur -12.971 -8.48452 -18.6492
ltibia 28.5114
lfoot -17.181 11.9504
ltoes 6.38594
1223
root 0.0534978 18.2486 -3.6533 5.34188 -4.02381 -3.64076
lowerback 1.66035 -0.659507 2.59364
upperback -1.92843 -0.712785 3.50255
thorax -2.90311 -0.372344 2.18127
lowerneck -15.0884 -2.87187 -3.95819
upperneck 18.2471 -2.5361 -2.30194
head 8.18461 -1.71571 -0.406162
rclavicle 2.70844e-015 -3.73715e-014
rhumerus -34.5183 -10.2943 -78.4511
rradius 30.4957
rwrist -2.84637
rhand -23.6471 14.8607
rfingers 7.12502
rthumb 2.81818 -15.1004
lclavicle 2.70844e-015 -3.73715e-014
lhumerus -35.2804 6.78969 88.4536
lradius 31.4247
lwrist -18.2151
lhand -6.57233 26.9237
lfingers 7.12502
lthumb 19.2821 55.9878
rfemur -16.4193 8.57271 27.2302
rtibia 32.1826
rfoot -16.4058 -14.1568
rtoes 25.1447
lfemur -13.008 -8.45607 -18.6024
ltibia 28.6008
lfoot -17.2794 11.9297
ltoes 6.4579
1224
root 0.0527033 18.239 -3.65419 5.37278 -4.04759 -3.66733
lowerback 1.64444 -0.650527 2.61468
upperback -1.93804 -0.70054 3.50269
thorax -2.90457 -0.366707 2.16902
lowerneck -15.1488 -2.90288 -3.96275
upperneck 18.2915 -2.56305 -2.35165
head 8.2101 -1.73486 -0.426638
rclavicle -2.01766e-014 3.97569e-014
rhumerus -34.5134 -10.1585 -78.5697
rradius 30.6485
rwrist -2.86254
rhand -23.6525 14.9561
rfingers 7.12502
rthumb 2.81296 -15.0051
lclavicle -2.01766e-014 3.97569e-014
lhumerus -35.277 6.77249 88.4598
lradius 31.4378
lwrist -18.1325
lhand -6.80905 26.7362
lfingers 7.12502
lthumb 19.0545 55.8228
rfemur -16.4889 8.59795 27.2623
rtibia 32.2251
rfoot -16.3507 -14.1961
rtoes 24.9559
lfemur -13.1157 -8.4426 -18.5667
ltibia 28.7275
lfoot -17.324 11.9382
ltoes 6.67449
1225
root 0.0520001 18.2387 -3.6559 5.40393 -4.01226 -3.76588
lowerback 1.66063 -0.655168 2.70762
upperback -1.96919 -0.701049 3.52741
thorax -2.94693 -0.368895 2.1433
lowerneck -15.1166 -2.93049 -3.95083
upperneck 18.2656 -2.59367 -2.41296
head 8.19499 -1.75423 -0.451734
rclavicle 1.04362e-014 -5.725e-014
rhumerus -34.5221 -10.0365 -78.6707
rradius 30.8232
rwrist -2.83345
rhand -23.6481 14.4803
rfingers 7.12502
rthumb 2.81719 -15.4808
lclavicle 1.04362e-014 -5.725e-014
lhumerus -35.2989 6.82946 88.4457
lradius 31.4576
lwrist -18.1658
lhand -7.08486 26.5546
lfingers 7.12502
lthumb 18.7892 55.6672
rfemur -16.5393 8.58958 27.3728
rtibia 32.2474
rfoot -16.343 -14.2168
rtoes 25.0533
lfemur -13.2151 -8.47906 -18.4457
ltibia 28.832
lfoot -17.3293 11.9651
ltoes 6.49271
1226
root 0.0509703 18.2384 -3.65889 5.4353 -3.95187 -3.81814
lowerback 1.67394 -0.679401 2.74531
upperback -1.99201 -0.729809 3.55531
thorax -2.97779 -0.383918 2.15285
lowerneck -15.0439 -2.93035 -4.01368
upperneck 18.2069 -2.58871 -2.38936
head 8.16379 -1.75257 -0.431157
rclavicle -5.66536e-015 2.46493e-014
rhumerus -34.4519 -9.75332 -78.8188
rradius 30.9893
rwrist -2.96635
rhand -23.6751 13.968
rfingers 7.12502
rthumb 2.79113 -15.9935
lclavicle -5.66536e-015 2.46493e-014
lhumerus -35.3158 6.90848 88.4406
lradius 31.5002
lwrist -18.2342
lhand -7.15947 26.4189
lfingers 7.12502
lthumb 18.7174 55.5384
rfemur -16.6 8.60022 27.4359
rtibia 32.2698
rfoot -16.3271 -14.2937
rtoes 24.9008
lfemur -13.3163 -8.50885 -18.3617
ltibia 28.9238
lfoot -17.347 11.8583
ltoes 6.88537
1227
root 0.0476549 18.2382 -3.66126 5.43906 -3.91451 -3.79796
lowerback 1.68309 -0.68503 2.6786
upperback -1.98506 -0.739257 3.55404
thorax -2.97467 -0.387157 2.18934
lowerneck -15.0383 -2.92982 -4.07066
upperneck 18.1776 -2.5948 -2.29443
head 8.15509 -1.74917 -0.3905
rclavicle -3.42407e-014 1.90833e-014
rhumerus -34.3949 -9.53211 -78.9877
rradius 31.1767
rwrist -3.14995
rhand -23.6646 13.9779
rfingers 7.12502
rthumb 2.80125 -15.9834
lclavicle -3.42407e-014 1.90833e-014
lhumerus -35.2715 6.84646 88.4804
lradius 31.4571
lwrist -18.099
lhand -6.76134 26.884
lfingers 7.12502
lthumb 19.1003 55.9661
rfemur -16.603 8.67393 27.4288
rtibia 32.2458
rfoot -16.3339 -14.3742
rtoes 25.2303
lfemur -13.3693 -8.43498 -18.359
ltibia 28.9625
lfoot -17.3739 11.7088
ltoes 7.04058
1228
root 0.0461874 18.239 -3.66146 5.41991 -3.89969 -3.76481
lowerback 1.70423 -0.678129 2.63466
upperback -1.98401 -0.730918 3.5318
thorax -2.98528 -0.382308 2.19091
lowerneck -15.0294 -2.93732 -4.08274
upperneck 18.1777 -2.61363 -2.24154
head 8.15446 -1.75349 -0.372924
rclavicle 2.61899e-014 -6.2816e-014
rhumerus -34.3596 -9.45149 -79.0948
rradius 31.1931
rwrist -3.18678
rhand -23.5649 14.5213
rfingers 7.12502
rthumb 2.89758 -15.4388
lclavicle 2.61899e-014 -6.2816e-014
lhumerus -35.2485 6.85824 88.4839
lradius 31.4279
lwrist -18.0102
lhand -6.24302 27.436
lfingers 7.12502
lthumb 19.5987 56.4682
rfemur -16.5807 8.66971 27.4005
rtibia 32.2394
rfoot -16.3227 -14.4
rtoes 25.3195
lfemur -13.3823 -8.44574 -18.3902
ltibia 29.0052
lfoot -17.397 11.7585
ltoes 6.78601
1229
root 0.0420841 18.2386 -3.66646 5.42406 -3.7456 -3.83332
lowerback 1.76949 -0.724583 2.66098
upperback -2.00584 -0.787169 3.5545
thorax -3.0438 -0.410912 2.20357
lowerneck -15.0094 -2.94381 -4.08225
upperneck 18.1779 -2.62807 -2.22103
head 8.15129 -1.75814 -0.367504
rclavicle 8.92046e-015 1.11319e-014
rhumerus -34.3259 -9.38638 -79.1761
rradius 31.1995
rwrist -3.17507
rhand -23.4403 15.0845
rfingers 7.12502
rthumb 3.01787 -14.8739
lclavicle 8.92046e-015 1.11319e-014
lhumerus -35.2239 6.84305 88.4756
lradius 31.4374
lwrist -17.9981
lhand -6.29 27.4788
lfingers 7.12502
lthumb 19.5536 56.5155
rfemur -16.5809 8.61097 27.5059
rtibia 32.2356
rfoot -16.3653 -14.4544
rtoes 25.3632
lfemur -13.4497 -8.42809 -18.2749
ltibia 29.0453
lfoot -17.3684 11.6731
ltoes 6.29783
1230
root 0.0327262 18.2378 -3.68523 5.52518 -3.37173 -3.81918
lowerback 1.91523 -0.831203 2.50746
upperback -2.08808 -0.922392 3.59754
thorax -3.20548 -0.4749 2.34446
lowerneck -15.05 -2.99386 -4.16239
upperneck 18.1857 -2.68968 -2.15114
head 8.16406 -1.78598 -0.339039
rclavicle 3.926e-015 -3.4191e-014
rhumerus -34.1892 -9.41008 -79.2205
rradius 31.1321
rwrist -3.0851
rhand -23.4558 15.1022
rfingers 7.12502
rthumb 3.00293 -14.8564
lclavicle 3.926e-015 -3.4191e-014
lhumerus -35.1577 6.8855 88.4776
lradius 31.446
lwrist -18.0728
lhand -6.53958 27.2766
lfingers 7.12502
lthumb 19.3136 56.3375
rfemur -16.7497 8.49492 27.5429
rtibia 32.2331
rfoot -16.3387 -14.7015
rtoes 25.1123
lfemur -13.7218 -8.42402 -18.1687
ltibia 29.0947
lfoot -17.3071 11.3169
ltoes 6.03149
1231
root 0.0310473 18.2375 -3.69057 5.57457 -3.3314 -3.83293
lowerback 1.91955 -0.816069 2.49791
upperback -2.09629 -0.902072 3.59102
thorax -3.21679 -0.464638 2.34235
lowerneck -15.064 -3.03063 -4.19482
upperneck 18.1724 -2.74447 -2.09021
head 8.16391 -1.80771 -0.319844
rclavicle -7.95139e-015 -2.54444e-014
rhumerus -34.0646 -9.45808 -79.2933
rradius 31.0495
rwrist -3.02432
rhand -23.6305 15.0108
rfingers 7.12502
rthumb 2.83418 -14.9501
lclavicle -7.95139e-015 -2.54444e-014
lhumerus -35.0967 6.86814 88.4728
lradius 31.4398
lwrist -18.1394
lhand -6.67409 27.0334
lfingers 7.12502
lthumb 19.1842 56.1072
rfemur -16.8263 8.57197 27.5588
rtibia 32.2278
rfoot -16.2478 -14.828
rtoes 24.8109
lfemur -13.8302 -8.44206 -18.1243
ltibia 29.1469
lfoot -17.3476 11.268
ltoes 5.88897
1232
root 0.0305391 18.2371 -3.69355 5.57514 -3.31068 -3.86048
lowerback 1.9283 -0.797149 2.52549
upperback -2.0888 -0.875963 3.58156
thorax -3.21513 -0.452342 2.3159
lowerneck -14.976 -3.04806 -4.18155
upperneck 18.0814 -2.78535 -2.0569
head 8.11815 -1.82093 -0.313057
rclavicle -9.41742e-015 3.4191e-014
rhumerus -34.0334 -9.38581 -79.3822
rradius 31.0967
rwrist -3.01493
rhand -23.6957 14.9314
rfingers 7.12502
rthumb 2.77125 -15.0303
lclavicle -9.41742e-015 3.4191e-014
lhumerus -35.05 6.78685 88.4815
lradius 31.4201
lwrist -18.2035
lhand -6.79051 26.79
lfingers 7.12502
lthumb 19.0723 55.8749
rfemur -16.854 8.56903 27.5966
rtibia 32.2464
rfoot -16.2249 -14.8418
rtoes 24.8085
lfemur -13.8561 -8.42538 -18.0807
ltibia 29.1663
lfoot -17.4287 11.1677
ltoes 6.16262
